HIERARCHY
ROOT Hips
{
	OFFSET -0.0000 111.0000 0.0000
	CHANNELS 6 Xposition Yposition Zposition Xrotation Yrotation Zrotation
	JOINT RightUpperLeg
	{
		OFFSET -10.5000 -8.8000 0.0000
		CHANNELS 3 Xrotation Yrotation Zrotation
		JOINT RightLowerLeg
		{
			OFFSET -0.0000 -45.6000 0.0000
			CHANNELS 3 Xrotation Yrotation Zrotation
			JOINT RightFoot
			{
				OFFSET -0.0000 -46.7000 0.0000
				CHANNELS 3 Xrotation Yrotation Zrotation
				JOINT RightToe
				{
					OFFSET -0.0000 -8.0000 12.1000
					CHANNELS 3 Xrotation Yrotation Zrotation
					End Site
					{
						OFFSET -0.0000 0.0000 2.4200
					}
				}
			}
		}
	}
	JOINT LeftUpperLeg
	{
		OFFSET 10.5000 -8.8000 0.0000
		CHANNELS 3 Xrotation Yrotation Zrotation
		JOINT LeftLowerLeg
		{
			OFFSET -0.0000 -45.6000 0.0000
			CHANNELS 3 Xrotation Yrotation Zrotation
			JOINT LeftFoot
			{
				OFFSET -0.0000 -46.7000 0.0000
				CHANNELS 3 Xrotation Yrotation Zrotation
				JOINT LeftToe
				{
					OFFSET -0.0000 -8.0000 12.1000
					CHANNELS 3 Xrotation Yrotation Zrotation
					End Site
					{
						OFFSET -0.0000 0.0000 2.4200
					}
				}
			}
		}
	}
	JOINT Spine
	{
		OFFSET -0.0000 9.7000 0.0000
		CHANNELS 3 Xrotation Yrotation Zrotation
		JOINT Spine1
		{
			OFFSET -0.0000 11.2000 0.0000
			CHANNELS 3 Xrotation Yrotation Zrotation
			JOINT Spine2
			{
				OFFSET -0.0000 12.1000 0.0000
				CHANNELS 3 Xrotation Yrotation Zrotation
				JOINT Spine3
				{
					OFFSET -0.0000 11.7000 1.2000
					CHANNELS 3 Xrotation Yrotation Zrotation
					JOINT Neck
					{
						OFFSET -0.0000 12.0000 -1.2000
						CHANNELS 3 Xrotation Yrotation Zrotation
						JOINT Head
						{
							OFFSET -0.0000 10.0000 0.0000
							CHANNELS 3 Xrotation Yrotation Zrotation
							End Site
							{
								OFFSET -0.0000 20.0000 0.0000
							}
						}
					}
					JOINT RightShoulder
					{
						OFFSET -4.9000 4.0000 -1.2000
						CHANNELS 3 Xrotation Yrotation Zrotation
						JOINT RightUpperArm
						{
							OFFSET -15.6000 0.0000 0.0000
							CHANNELS 3 Xrotation Yrotation Zrotation
							JOINT RightLowerArm
							{
								OFFSET -25.9000 0.0000 0.0000
								CHANNELS 3 Xrotation Yrotation Zrotation
								JOINT RightHand
								{
									OFFSET -28.4000 0.0000 0.0000
									CHANNELS 3 Xrotation Yrotation Zrotation
									JOINT RightThumbFinger
									{
										OFFSET -3.4000 0.3000 4.2000
										CHANNELS 3 Xrotation Yrotation Zrotation
										JOINT RightThumbFinger1
										{
											OFFSET -3.5000 0.0000 3.5000
											CHANNELS 3 Xrotation Yrotation Zrotation
											JOINT RightThumbFinger2
											{
												OFFSET -2.5000 0.0000 2.4000
												CHANNELS 3 Xrotation Yrotation Zrotation
												End Site
												{
													OFFSET -2.1450 0.0000 2.0592
												}
											}
										}
									}
									JOINT RightIndexFinger
									{
										OFFSET -4.4000 0.7000 2.6000
										CHANNELS 3 Xrotation Yrotation Zrotation
										JOINT RightIndexFinger1
										{
											OFFSET -7.0000 -0.1000 1.4000
											CHANNELS 3 Xrotation Yrotation Zrotation
											JOINT RightIndexFinger2
											{
												OFFSET -5.0000 -0.2000 0.0000
												CHANNELS 3 Xrotation Yrotation Zrotation
												JOINT RightIndexFinger3
												{
													OFFSET -2.7000 -0.2000 0.0000
													CHANNELS 3 Xrotation Yrotation Zrotation
													End Site
													{
														OFFSET -2.3814 -0.1764 0.0000
													}
												}
											}
										}
									}
									JOINT RightMiddleFinger
									{
										OFFSET -4.6000 0.7000 1.0000
										CHANNELS 3 Xrotation Yrotation Zrotation
										JOINT RightMiddleFinger1
										{
											OFFSET -7.0000 -0.1000 0.4000
											CHANNELS 3 Xrotation Yrotation Zrotation
											JOINT RightMiddleFinger2
											{
												OFFSET -5.3000 -0.3000 0.0000
												CHANNELS 3 Xrotation Yrotation Zrotation
												JOINT RightMiddleFinger3
												{
													OFFSET -3.4000 -0.3000 0.0000
													CHANNELS 3 Xrotation Yrotation Zrotation
													End Site
													{
														OFFSET -2.9988 -0.2646 0.0000
													}
												}
											}
										}
									}
									JOINT RightRingFinger
									{
										OFFSET -4.5000 0.8000 -0.1000
										CHANNELS 3 Xrotation Yrotation Zrotation
										JOINT RightRingFinger1
										{
											OFFSET -6.3000 -0.1000 -0.7000
											CHANNELS 3 Xrotation Yrotation Zrotation
											JOINT RightRingFinger2
											{
												OFFSET -4.7000 -0.4000 0.0000
												CHANNELS 3 Xrotation Yrotation Zrotation
												JOINT RightRingFinger3
												{
													OFFSET -3.2000 -0.3000 0.0000
													CHANNELS 3 Xrotation Yrotation Zrotation
													End Site
													{
														OFFSET -2.8224 -0.2646 0.0000
													}
												}
											}
										}
									}
									JOINT RightPinkyFinger
									{
										OFFSET -4.3000 0.7000 -1.6000
										CHANNELS 3 Xrotation Yrotation Zrotation
										JOINT RightPinkyFinger1
										{
											OFFSET -5.6000 -0.1000 -1.5000
											CHANNELS 3 Xrotation Yrotation Zrotation
											JOINT RightPinkyFinger2
											{
												OFFSET -3.7000 -0.2000 0.0000
												CHANNELS 3 Xrotation Yrotation Zrotation
												JOINT RightPinkyFinger3
												{
													OFFSET -2.4000 -0.1000 0.0000
													CHANNELS 3 Xrotation Yrotation Zrotation
													End Site
													{
														OFFSET -2.1168 -0.0882 0.0000
													}
												}
											}
										}
									}
								}
							}
						}
					}
					JOINT LeftShoulder
					{
						OFFSET 4.9000 4.0000 -1.2000
						CHANNELS 3 Xrotation Yrotation Zrotation
						JOINT LeftUpperArm
						{
							OFFSET 15.6000 0.0000 0.0000
							CHANNELS 3 Xrotation Yrotation Zrotation
							JOINT LeftLowerArm
							{
								OFFSET 25.9000 0.0000 0.0000
								CHANNELS 3 Xrotation Yrotation Zrotation
								JOINT LeftHand
								{
									OFFSET 28.4000 0.0000 0.0000
									CHANNELS 3 Xrotation Yrotation Zrotation
									JOINT LeftThumbFinger
									{
										OFFSET 3.4000 0.3000 4.2000
										CHANNELS 3 Xrotation Yrotation Zrotation
										JOINT LeftThumbFinger1
										{
											OFFSET 3.5000 0.0000 3.5000
											CHANNELS 3 Xrotation Yrotation Zrotation
											JOINT LeftThumbFinger2
											{
												OFFSET 2.5000 0.0000 2.5000
												CHANNELS 3 Xrotation Yrotation Zrotation
												End Site
												{
													OFFSET 2.1450 0.0000 2.1450
												}
											}
										}
									}
									JOINT LeftIndexFinger
									{
										OFFSET 4.4000 0.7000 2.6000
										CHANNELS 3 Xrotation Yrotation Zrotation
										JOINT LeftIndexFinger1
										{
											OFFSET 7.0000 -0.1000 1.4000
											CHANNELS 3 Xrotation Yrotation Zrotation
											JOINT LeftIndexFinger2
											{
												OFFSET 5.0000 -0.2000 0.0000
												CHANNELS 3 Xrotation Yrotation Zrotation
												JOINT LeftIndexFinger3
												{
													OFFSET 2.7000 -0.2000 0.0000
													CHANNELS 3 Xrotation Yrotation Zrotation
													End Site
													{
														OFFSET 2.3814 -0.1764 0.0000
													}
												}
											}
										}
									}
									JOINT LeftMiddleFinger
									{
										OFFSET 4.6000 0.7000 1.0000
										CHANNELS 3 Xrotation Yrotation Zrotation
										JOINT LeftMiddleFinger1
										{
											OFFSET 7.0000 -0.1000 0.4000
											CHANNELS 3 Xrotation Yrotation Zrotation
											JOINT LeftMiddleFinger2
											{
												OFFSET 5.3000 -0.3000 0.0000
												CHANNELS 3 Xrotation Yrotation Zrotation
												JOINT LeftMiddleFinger3
												{
													OFFSET 3.4000 -0.3000 0.0000
													CHANNELS 3 Xrotation Yrotation Zrotation
													End Site
													{
														OFFSET 2.9988 -0.2646 0.0000
													}
												}
											}
										}
									}
									JOINT LeftRingFinger
									{
										OFFSET 4.5000 0.8000 -0.1000
										CHANNELS 3 Xrotation Yrotation Zrotation
										JOINT LeftRingFinger1
										{
											OFFSET 6.3000 -0.1000 -0.7000
											CHANNELS 3 Xrotation Yrotation Zrotation
											JOINT LeftRingFinger2
											{
												OFFSET 4.7000 -0.3000 0.0000
												CHANNELS 3 Xrotation Yrotation Zrotation
												JOINT LeftRingFinger3
												{
													OFFSET 3.2000 -0.2000 0.0000
													CHANNELS 3 Xrotation Yrotation Zrotation
													End Site
													{
														OFFSET 2.8224 -0.1764 0.0000
													}
												}
											}
										}
									}
									JOINT LeftPinkyFinger
									{
										OFFSET 4.3000 0.7000 -1.6000
										CHANNELS 3 Xrotation Yrotation Zrotation
										JOINT LeftPinkyFinger1
										{
											OFFSET 5.6000 -0.1000 -1.5000
											CHANNELS 3 Xrotation Yrotation Zrotation
											JOINT LeftPinkyFinger2
											{
												OFFSET 3.7000 -0.2000 0.1000
												CHANNELS 3 Xrotation Yrotation Zrotation
												JOINT LeftPinkyFinger3
												{
													OFFSET 2.4000 -0.1000 -0.1000
													CHANNELS 3 Xrotation Yrotation Zrotation
													End Site
													{
														OFFSET 2.1168 -0.0882 -0.0882
													}
												}
											}
										}
									}
								}
							}
						}
					}
				}
			}
		}
	}
}
MOTION
Frames: 4
Frame Time: 0.010417
30.08 111.42 -5.99 0.12 -33.62 -4.48 -29.90 11.62 2.10 37.59 -10.45 7.96 3.46 -4.05 2.83 0.00 0.00 0.00 -7.95 7.20 3.17 11.44 -1.02 -0.09 -3.96 1.76 2.50 -0.00 0.00 0.00 0.96 0.47 -0.91 1.12 0.60 -0.78 1.22 0.63 -0.85 1.21 0.63 -0.85 20.89 -9.61 3.99 17.74 -8.28 3.19 12.93 -4.22 4.79 -12.44 4.94 78.11 0.01 9.86 7.81 29.33 7.70 -14.12 6.53 -2.03 -1.62 2.58 -13.04 6.25 1.68 -18.54 10.74 0.00 0.00 -0.00 -0.05 2.00 1.41 -0.49 -0.15 15.03 -0.25 -0.11 7.76 0.00 0.00 -0.00 -0.00 0.00 2.71 0.01 0.00 22.27 -0.00 -0.00 11.81 0.00 0.00 -0.00 0.13 -1.99 3.73 0.78 0.45 26.53 0.36 0.36 14.30 0.00 0.00 -0.00 0.11 -4.00 1.52 1.03 0.32 15.68 0.52 0.25 8.13 12.16 0.19 -3.51 -10.07 -1.29 -74.45 360.93 -8.73 355.18 12.69 -2.06 11.06 1.72 2.02 1.91 1.95 18.18 -13.41 1.59 26.18 -21.52 -0.00 0.00 0.00 -0.09 -2.00 -2.69 -0.68 0.32 -22.13 -0.33 0.24 -11.73 -0.00 0.00 0.00 0.01 -0.00 -6.23 -0.00 -0.00 -34.72 0.00 0.00 -19.41 -0.00 0.00 0.00 0.17 1.99 -4.83 0.83 -0.59 -30.47 0.35 -0.45 -16.72 -0.00 0.00 0.00 0.47 3.95 -6.72 1.73 -1.60 -35.98 0.63 -1.23 -20.25 
30.18 111.44 -5.97 0.12 -33.86 -4.64 -30.51 11.31 2.40 35.73 -10.25 7.81 3.98 -4.20 2.23 -0.00 0.00 0.00 -8.01 7.66 3.34 11.47 -1.14 -0.08 -3.98 1.64 2.56 -0.00 0.00 0.00 0.95 0.44 -0.87 1.15 0.55 -0.78 1.23 0.59 -0.85 1.23 0.59 -0.83 20.93 -9.52 3.97 17.76 -8.22 3.16 12.90 -4.24 4.75 -12.53 4.97 78.03 0.09 9.92 7.71 29.73 7.63 -14.27 6.72 -2.03 -1.60 2.64 -13.23 6.33 1.72 -18.77 10.91 0.00 0.00 0.00 -0.05 1.99 1.41 -0.49 -0.14 15.05 -0.24 -0.11 7.75 0.00 0.00 0.00 -0.00 -0.00 2.71 0.01 -0.00 22.25 -0.00 -0.00 11.80 0.00 0.00 0.00 0.12 -1.99 3.66 0.78 0.44 26.26 0.35 0.34 14.15 0.00 0.00 0.00 0.10 -4.00 1.49 1.03 0.31 15.52 0.50 0.24 8.01 12.13 0.16 -3.49 -10.10 -1.43 -74.39 360.53 -8.85 355.13 12.39 -2.34 11.10 1.70 2.02 1.91 1.96 18.19 -13.42 1.60 26.18 -21.53 -0.00 0.00 0.00 -0.10 -2.00 -2.69 -0.69 0.32 -22.13 -0.32 0.24 -11.73 -0.00 0.00 0.00 -0.01 -0.00 -6.22 0.01 0.00 -34.73 0.00 -0.00 -19.40 -0.00 0.00 0.00 0.17 1.99 -4.83 0.83 -0.59 -30.47 0.35 -0.46 -16.72 -0.00 0.00 0.00 0.46 3.95 -6.73 1.74 -1.59 -35.98 0.62 -1.24 -20.26 
30.29 111.47 -5.97 0.11 -34.11 -4.80 -31.00 11.12 2.72 33.61 -10.21 7.59 4.47 -4.17 1.68 -0.00 -0.00 0.00 -8.08 7.99 3.51 11.50 -1.10 -0.08 -3.98 1.51 2.59 -0.00 0.00 -0.00 0.97 0.40 -0.85 1.16 0.52 -0.78 1.24 0.55 -0.83 1.25 0.55 -0.84 20.97 -9.44 3.95 17.79 -8.15 3.15 12.89 -4.22 4.72 -12.59 4.95 77.92 0.19 9.98 7.62 30.36 7.55 -14.37 6.72 -2.02 -1.59 2.64 -13.24 6.32 1.70 -18.77 10.91 -0.00 0.00 0.00 -0.06 2.00 1.42 -0.49 -0.15 15.04 -0.25 -0.11 7.77 -0.00 0.00 0.00 0.00 -0.01 2.72 0.00 0.01 22.25 0.00 -0.00 11.79 -0.00 0.00 0.00 0.13 -1.99 3.66 0.77 0.43 26.26 0.35 0.35 14.14 -0.00 0.00 0.00 0.11 -4.00 1.49 1.02 0.32 15.51 0.51 0.23 8.01 12.12 0.22 -3.46 -10.14 -1.71 -74.35 360.09 -9.00 355.08 12.06 -2.61 11.02 1.75 2.09 1.96 1.94 18.27 -13.34 1.49 26.29 -21.43 -0.00 -0.00 0.00 -0.09 -1.99 -2.70 -0.69 0.32 -22.14 -0.33 0.24 -11.72 -0.00 -0.00 0.00 0.01 0.00 -6.21 -0.00 -0.00 -34.70 -0.01 0.00 -19.40 -0.00 -0.00 0.00 0.18 1.99 -4.82 0.83 -0.59 -30.42 0.35 -0.45 -16.67 -0.00 -0.00 0.00 0.47 3.95 -6.68 1.73 -1.59 -35.86 0.62 -1.23 -20.18 
30.39 111.49 -5.96 0.11 -34.29 -4.97 -31.42 10.99 3.01 31.39 -10.32 7.33 5.02 -4.06 1.26 0.00 0.00 -0.00 -8.13 8.24 3.68 11.52 -1.06 -0.09 -3.99 1.39 2.64 -0.00 0.00 -0.00 0.98 0.37 -0.82 1.18 0.47 -0.76 1.27 0.50 -0.81 1.27 0.51 -0.83 21.01 -9.39 3.93 17.83 -8.09 3.14 12.86 -4.27 4.69 -12.64 4.89 77.80 0.35 10.05 7.58 31.12 7.40 -14.55 6.89 -2.01 -1.57 2.71 -13.39 6.46 1.75 -18.96 11.16 -0.00 -0.00 -0.00 -0.05 2.01 1.43 -0.50 -0.16 15.09 -0.25 -0.11 7.78 -0.00 -0.00 -0.00 -0.00 -0.00 2.72 0.00 0.00 22.23 0.00 0.00 11.79 -0.00 -0.00 -0.00 0.13 -1.99 3.62 0.77 0.44 26.10 0.35 0.33 14.05 -0.00 -0.00 -0.00 0.11 -4.00 1.48 1.02 0.32 15.40 0.50 0.23 7.96 12.10 0.14 -3.43 -10.22 -1.49 -74.29 359.94 -9.06 355.06 11.95 -2.70 11.00 1.79 2.12 1.97 1.94 18.30 -13.31 1.46 26.32 -21.41 0.00 0.00 -0.00 -0.09 -2.00 -2.69 -0.68 0.32 -22.13 -0.33 0.24 -11.71 0.00 0.00 -0.00 -0.00 -0.00 -6.23 -0.00 0.00 -34.73 0.01 -0.00 -19.40 0.00 0.00 -0.00 0.17 1.99 -4.82 0.82 -0.58 -30.43 0.36 -0.45 -16.69 0.00 0.00 -0.00 0.46 3.95 -6.66 1.72 -1.58 -35.79 0.63 -1.22 -20.14 
